<?xml version="1.0" encoding="utf-8"?>
<!-- Generator: Adobe Illustrator 22.1.0, SVG Export Plug-In . SVG Version: 6.00 Build 0)  -->
<svg version="1.1" id="Layer_1" xmlns="http://www.w3.org/2000/svg" xmlns:xlink="http://www.w3.org/1999/xlink" x="0px" y="0px"
	 viewBox="0 0 145.5 21" style="enable-background:new 0 0 145.5 21;" xml:space="preserve">
<style type="text/css">
	.st0{fill:#1B75BC;}
	.st1{fill:#4C4C4D;}
</style>
<g>
	<g>
		<circle class="st0" cx="5" cy="15.1" r="3.9"/>
		<circle class="st0" cx="10.2" cy="5.9" r="3.9"/>
		<circle class="st0" cx="15.4" cy="15.1" r="3.9"/>
	</g>
	<g>
		<path class="st1" d="M32.2,13.5c0.2,1.3,1.3,2.3,3.2,2.3c1,0,2.2-0.4,2.9-1l1.7,1.7c-1.1,1.2-3,1.7-4.6,1.7
			c-3.7,0-5.9-2.3-5.9-5.7c0-3.2,2.2-5.6,5.7-5.6c3.6,0,5.8,2.2,5.4,6.6H32.2z M37.9,11.3c-0.2-1.4-1.3-2.1-2.8-2.1
			c-1.4,0-2.6,0.7-3,2.1H37.9z"/>
		<path class="st1" d="M53.6,2.8v15.1h-2.5l-0.2-1.5c-0.8,1.3-2.1,1.7-3.4,1.7c-3.1,0-5.5-2.1-5.5-5.6C42,8.9,44.3,7,47.4,7
			c1.1,0,2.9,0.6,3.5,1.7V2.8H53.6z M44.6,12.5c0,1.9,1.3,3.1,3,3.1c1.7,0,3.1-1.2,3.1-3.1c0-1.9-1.4-3.1-3.1-3.1
			C46,9.4,44.6,10.6,44.6,12.5z"/>
		<path class="st1" d="M58.3,7.2v5.6c0,1.6,0.9,2.9,2.6,2.9c1.6,0,2.7-1.4,2.7-3V7.2h2.6v10.7h-2.4l-0.2-1.4
			c-1.1,1.1-2.1,1.6-3.6,1.6c-2.6,0-4.4-1.9-4.4-5.2V7.2H58.3z"/>
		<path class="st1" d="M75.5,10.1c-0.8-0.7-1.6-1-2.6-1c-1.3,0-1.9,0.4-1.9,1.1c0,0.7,0.6,1.1,2,1.2c2,0.1,4.6,0.6,4.6,3.4
			c0,1.9-1.5,3.5-4.6,3.5c-1.7,0-3.4-0.3-4.9-1.9l1.3-1.9c0.8,0.8,2.5,1.5,3.7,1.5c1,0,1.9-0.5,1.9-1.3c0-0.7-0.6-1-2.1-1.1
			c-2-0.2-4.4-0.9-4.4-3.3c0-2.5,2.6-3.3,4.5-3.3c1.7,0,2.9,0.3,4.2,1.4L75.5,10.1z"/>
		<path class="st1" d="M81.8,2.7v5.9c1-1.2,2.1-1.6,3.3-1.6c3,0,4.4,2.1,4.4,5.2v5.6h-2.6v-5.6c0-1.9-1-2.8-2.4-2.8
			c-1.6,0-2.6,1.3-2.6,2.9v5.4h-2.6V2.7H81.8z"/>
		<path class="st1" d="M100.2,7.2h2.5v10.7h-2.5l-0.1-1.6c-0.6,1.3-2.3,1.9-3.5,1.9c-3.2,0-5.5-1.9-5.5-5.7c0-3.7,2.4-5.6,5.6-5.6
			c1.4,0,2.8,0.7,3.4,1.7L100.2,7.2z M93.8,12.5c0,2,1.4,3.2,3.2,3.2c4.2,0,4.2-6.5,0-6.5C95.2,9.3,93.8,10.5,93.8,12.5z"/>
		<path class="st1" d="M107.4,7.2l0.2,1.2c0.8-1.3,1.9-1.5,3-1.5c1.1,0,2.2,0.4,2.7,1l-1.2,2.3c-0.5-0.5-1-0.7-1.9-0.7
			c-1.4,0-2.7,0.7-2.7,2.7v5.6H105V7.2H107.4z"/>
		<path class="st1" d="M116.6,13.5c0.2,1.3,1.3,2.3,3.2,2.3c1,0,2.2-0.4,2.9-1l1.7,1.7c-1.1,1.2-3,1.7-4.6,1.7
			c-3.7,0-5.9-2.3-5.9-5.7c0-3.2,2.2-5.6,5.7-5.6c3.6,0,5.8,2.2,5.4,6.6H116.6z M122.4,11.3c-0.2-1.4-1.3-2.1-2.8-2.1
			c-1.4,0-2.6,0.7-3,2.1H122.4z"/>
	</g>
</g>
</svg>
