<?xml version="1.0" encoding="utf-8"?>
<!-- Generator: Adobe Illustrator 22.1.0, SVG Export Plug-In . SVG Version: 6.00 Build 0)  -->
<svg version="1.1" id="Layer_1" xmlns="http://www.w3.org/2000/svg" xmlns:xlink="http://www.w3.org/1999/xlink" x="0px" y="0px"
	 viewBox="0 0 145.5 21" style="enable-background:new 0 0 145.5 21;" xml:space="preserve">
<style type="text/css">
	.st0{fill:#FFFFFF;}
	.st1{fill:#4C4C4D;}
	.st2{fill:url(#SVGID_1_);}
</style>
<g>
	<g>
		<circle class="st0" cx="9.4" cy="15.3" r="3.5"/>
		<circle class="st0" cx="14.1" cy="7" r="3.5"/>
		<circle class="st0" cx="18.8" cy="15.3" r="3.5"/>
	</g>
	<g>
		<path class="st1" d="M34,13.9c0.2,1.2,1.2,2.1,2.9,2.1c0.9,0,2-0.4,2.6-0.9l1.5,1.5c-1,1.1-2.7,1.5-4.2,1.5
			c-3.3,0-5.3-2.1-5.3-5.1c0-2.9,2-5.1,5.1-5.1c3.3,0,5.2,2,4.9,6C41.6,13.9,34,13.9,34,13.9z M39.1,11.9C39,10.6,38,10,36.6,10
			c-1.3,0-2.3,0.6-2.7,1.9C33.9,11.9,39.1,11.9,39.1,11.9z"/>
		<path class="st1" d="M53.3,4.2v13.6h-2.3l-0.2-1.4C50.2,17.7,49,18,47.8,18c-2.8,0-5-1.9-5-5.1c0-3.3,2.1-5,4.9-5
			c1,0,2.6,0.5,3.2,1.5V4.2H53.3z M45.2,13c0,1.7,1.2,2.8,2.7,2.8c1.5,0,2.8-1.1,2.8-2.8c0-1.7-1.3-2.8-2.8-2.8
			C46.5,10.2,45.2,11.3,45.2,13z"/>
		<path class="st1" d="M57.6,8.2v5.1c0,1.4,0.8,2.6,2.3,2.6c1.4,0,2.4-1.3,2.4-2.7v-5h2.3v9.7h-2.2l-0.2-1.3c-1,1-1.9,1.4-3.3,1.4
			c-2.3,0-4-1.7-4-4.7V8.2H57.6z"/>
		<path class="st1" d="M73.1,10.8c-0.7-0.6-1.4-0.9-2.3-0.9c-1.2,0-1.7,0.4-1.7,1c0,0.6,0.5,1,1.8,1.1c1.8,0.1,4.2,0.5,4.2,3.1
			c0,1.7-1.4,3.2-4.2,3.2c-1.5,0-3.1-0.3-4.4-1.7l1.2-1.7c0.7,0.7,2.3,1.4,3.3,1.4c0.9,0,1.7-0.5,1.7-1.2c0-0.6-0.5-0.9-1.9-1
			c-1.8-0.2-4-0.8-4-3c0-2.3,2.3-3,4.1-3c1.5,0,2.6,0.3,3.8,1.3L73.1,10.8z"/>
		<path class="st1" d="M78.8,4.1v5.3c0.9-1.1,1.9-1.4,3-1.4c2.7,0,4,1.9,4,4.7v5.1h-2.3v-5.1c0-1.7-0.9-2.5-2.2-2.5
			c-1.4,0-2.3,1.2-2.3,2.6v4.9h-2.3V4.1H78.8z"/>
		<path class="st1" d="M95.4,8.2h2.3v9.7h-2.3l-0.1-1.4c-0.5,1.2-2.1,1.7-3.2,1.7c-2.9,0-5-1.7-5-5.1c0-3.3,2.2-5.1,5.1-5.1
			c1.3,0,2.5,0.6,3.1,1.5L95.4,8.2z M89.6,13c0,1.8,1.3,2.9,2.9,2.9c3.8,0,3.8-5.9,0-5.9C90.9,10.1,89.6,11.2,89.6,13z"/>
		<path class="st1" d="M101.9,8.2l0.2,1.1c0.7-1.2,1.7-1.4,2.7-1.4c1,0,2,0.4,2.4,0.9l-1.1,2.1c-0.5-0.5-0.9-0.6-1.7-0.6
			c-1.3,0-2.4,0.6-2.4,2.4v5.1h-2.3V8.2H101.9z"/>
		<path class="st1" d="M110.2,13.9c0.2,1.2,1.2,2.1,2.9,2.1c0.9,0,2-0.4,2.6-0.9l1.5,1.5c-1,1.1-2.7,1.5-4.2,1.5
			c-3.3,0-5.3-2.1-5.3-5.1c0-2.9,2-5.1,5.1-5.1c3.3,0,5.2,2,4.9,6C117.8,13.9,110.2,13.9,110.2,13.9z M115.5,11.9
			c-0.2-1.3-1.2-1.9-2.5-1.9c-1.3,0-2.3,0.6-2.7,1.9C110.2,11.9,115.5,11.9,115.5,11.9z"/>
	</g>
</g>
<g>
	<linearGradient id="SVGID_1_" gradientUnits="userSpaceOnUse" x1="11.4748" y1="1.8409" x2="11.4748" y2="20.375">
		<stop  offset="0" style="stop-color:#587DEB"/>
		<stop  offset="1" style="stop-color:#5850EB"/>
	</linearGradient>
	<path class="st2" d="M15.4,1.8H7.6c-3,0-5.4,2.4-5.4,5.4V15c0,3,2.4,5.4,5.4,5.4h7.8c3,0,5.4-2.4,5.4-5.4V7.2
		C20.7,4.3,18.3,1.8,15.4,1.8z"/>
	<g>
		<g>
			<circle class="st0" cx="7.3" cy="10.4" r="1.6"/>
			<path class="st0" d="M7.3,12.3c-0.8,0-1.4,0.6-1.4,1.4v1h2.9v-1C8.7,13,8.1,12.3,7.3,12.3z"/>
		</g>
		<g>
			<circle class="st0" cx="11.1" cy="9.8" r="1.8"/>
			<path class="st0" d="M11.1,12c-0.9,0-1.7,0.7-1.7,1.7v1.2h3.3v-1.2C12.8,12.7,12,12,11.1,12z"/>
		</g>
		<g>
			<ellipse transform="matrix(0.1597 -0.9872 0.9872 0.1597 3.6431 22.9796)" class="st0" cx="15.3" cy="9.3" rx="1.9" ry="1.9"/>
			<path class="st0" d="M15.4,11.6c-1,0-1.9,0.8-1.9,1.9v1.3h3.7v-1.3C17.3,12.5,16.4,11.6,15.4,11.6z"/>
		</g>
	</g>
</g>
</svg>
