<?xml version="1.0" encoding="utf-8"?>
<!-- Generator: Adobe Illustrator 22.1.0, SVG Export Plug-In . SVG Version: 6.00 Build 0)  -->
<svg version="1.1" id="f1248760-b706-401a-9a88-490bc0db237b"
	 xmlns="http://www.w3.org/2000/svg" xmlns:xlink="http://www.w3.org/1999/xlink" x="0px" y="0px" viewBox="0 0 620 550.7"
	 style="enable-background:new 0 0 620 550.7;" xml:space="preserve">
<style type="text/css">
	.st0{opacity:0.1;}
	.st1{opacity:0.1;enable-background:new    ;}
	.st2{fill:#3F3D56;}
	.st3{fill:url(#SVGID_1_);}
	.st4{fill:#575A89;}
	.st5{fill:#E8AFBF;}
	.st6{fill:#2F2E41;}
	.st7{fill:#FAC8D7;}
	.st8{fill:#F2F2F2;}
	.st9{fill:#00B894;}
	.st10{fill:#FAB1A0;}
	.st11{fill:#FDCB6E;}
	.st12{fill:#74B9FF;}
</style>
<title>mathematics</title>
<path class="st0" d="M559.5,504.2c0,25.7-111.7,46.5-249.5,46.5S60.5,529.8,60.5,504.2c0-18.2,56-33.9,137.6-41.6
	c33.6-3.2,71.6-4.9,111.9-4.9c16.5,0,32.7,0.3,48.3,0.9C473,462.7,559.5,481.6,559.5,504.2z"/>
<ellipse class="st1" cx="270" cy="499.2" rx="119" ry="14.5"/>
<ellipse class="st2" cx="269.5" cy="389.7" rx="112.5" ry="120"/>
<linearGradient id="SVGID_1_" gradientUnits="userSpaceOnUse" x1="270" y1="524.7" x2="270" y2="460.7">
	<stop  offset="0" style="stop-color:#6C63FF"/>
	<stop  offset="5.134284e-03" style="stop-color:#6C62FE"/>
	<stop  offset="0.4611" style="stop-color:#6C39CD"/>
	<stop  offset="0.8069" style="stop-color:#6C20AE"/>
	<stop  offset="1" style="stop-color:#6C16A2"/>
</linearGradient>
<rect x="235" y="460.7" class="st3" width="70" height="64"/>
<polygon class="st4" points="396.5,476.2 392.5,498.2 418.5,502.2 435.5,492.2 434.5,476.2 "/>
<path class="st5" d="M265.5,63.2c0,0-2,23-7,24s11,41,11,41h24l19-5l-9-22c0,0-12-16-3-29S265.5,63.2,265.5,63.2z"/>
<path class="st6" d="M215.5,239.2c0,0-26,50-5,60s26,9,26,12s-4,2-2,7s-4,25,2,37s4,21,4,21s0,1,2,5s3,7,2,9s-7,15-1,18s37,5,40,0
	s-3-8,0-11s5-4,3-6s-4-27-4-27s5-29,3-33s-5-8-3-11s4-2,5-6s3-13,3-13l11-1l26,5c0,0,29,32,61,42c0,0,9,9,12,9s3,0,2,2s-4,2-2,4
	s5-1,3,2s-4,3-2,5s-1,13-1,14s-9,95-6,97s45,8,48,0s-2-18-2-18s15-120,11-128s-18-44-93-67c0,0-21-4-21-7s-2-22-6-23s-27-2-27-2
	l-29,9l-40-7L215.5,239.2z"/>
<path class="st6" d="M250.5,407.2l-5,18c0,0-4,29,1,36c3.9,5.5,10.9,12.2,23.9,13.4c7.5,0.7,14.5-3.9,16.8-11.1
	c0.1-0.4,0.2-0.9,0.3-1.3c0-2-3-26-3-26l-5-25l-1-7L250.5,407.2z"/>
<path class="st6" d="M396.5,493.2c0,0-5-5-6,0s-5,26,2,27s74,11,81,7s20-10,12-13s-31-12-31-12s-13-17-15-18s-13,1-18,5
	S396.5,493.2,396.5,493.2z"/>
<circle class="st7" cx="289.5" cy="53.2" r="31"/>
<path class="st4" d="M286.5,123.2l-12-13l-13.3-26c0,0-9.7-3-11.7,2s-38,21-38,21s9,84,5,92s-11,40-5,43s34,0,43,4c9,4,35,4,42-1
	s9-9,16-6c6,2.6,19.9-84.8,23.9-110.8c0.7-4.5-1.2-8.9-4.9-11.5c-9-6.3-25.1-17.1-28-15.7C299.5,103.2,286.5,123.2,286.5,123.2z"/>
<path class="st4" d="M329.5,119.2L329.5,119.2c4.8,1.2,8.4,5.3,8.9,10.2l8.1,72.8c0,0-20,43-30,14S329.5,119.2,329.5,119.2z"/>
<path class="st4" d="M327.5,209.2l22-6c0,0,4,28,8,28s-14,16-23,14s-22-9-23-14s9-26,9-26L327.5,209.2z"/>
<path class="st6" d="M266.1,66.5c2.1-4.6,1.7-10.1,3.5-14.9c3.3-9.2,13.5-14,22.7-10.6c1.5,0.5,2.9,1.3,4.2,2.2
	c2.2,1.6,4.5,3.8,7.2,3.5c2.9-0.3,5.6-3.6,8.3-2.4c3,1.3,2.2,6.7,5.2,8c1.6,0.7,3.5-0.4,4.4-1.8c0.8-1.5,1.2-3.2,1.3-5
	c0.4-4.3,0.8-8.8-1.1-12.6c-0.8-1.3-1.5-2.7-2-4.1c-0.3-1.3-0.5-2.7-0.4-4c0-5-0.4-10.2-2.9-14.6c-2.8-4.8-8-7.9-13.4-9.2
	S292-0.1,286.5,0.3c-9.2,0.8-18.7,2.4-25.9,8.1c-1,0.7-1.8,1.6-2.5,2.6c-0.6,1.2-1.1,2.5-1.3,3.8c-1.6,6.4-3.9,12.5-7,18.3
	c-1.5,2.5-2.7,5.1-3.6,7.8c-0.8,2.8-0.7,5.9,0.9,8.3c1.3,1.9,3.4,3,5,4.5c1.6,1.6,2.4,4.6,4.2,5.7c1.6,1,3.5,0.3,5.1,1.4
	C263.5,62.3,263.7,65.4,266.1,66.5z"/>
<path class="st8" d="M291.5,138.2l3-6c0,0,44,13,53,25c0,0,22-14,34-12l12,2l-37,33l-47-4L291.5,138.2z"/>
<path class="st9" d="M289.5,132.2l-41,57l59,29c0,0,5.5,3,9.8,0l39.2-18l37-53l-37,19c0,0-4-8-12-4L289.5,132.2z"/>
<path class="st7" d="M352.5,233.2l8-21c0,0,18-23,8-34s-21,32-21,32L352.5,233.2z"/>
<path class="st7" d="M260.2,229.8l17.5-14.2c0,0,27.1-10.9,24-25.4s-34.2,17.1-34.2,17.1L260.2,229.8z"/>
<path class="st1" d="M217,128.7h-1c0,0-15.5-18.5-18.5,6.5s-13,108,13,111s44.5-12.5,44.5-12.5s19-29,12-29c-3.4,0-12.6-1.5-21-1
	c-9,0.6-17,3.1-16.5,0.5C230.5,199.2,245,135.7,217,128.7z"/>
<path class="st4" d="M215.5,109.2l-4-2c0,0-16,3-19,28s-13,108,13,111s61-4,61-4s7-38,0-38s-43,5-42,0S243.5,116.2,215.5,109.2z"/>
<polygon class="st4" points="338,221.7 349,204.8 356,232.7 338,240.7 "/>
<circle class="st10" cx="479.2" cy="233.2" r="27"/>
<rect x="79.5" y="154.7" class="st11" width="64" height="64"/>
<polygon class="st12" points="419.8,39.3 436,67.3 452.2,95.4 419.8,95.4 387.4,95.4 403.6,67.3 "/>
</svg>
