<?xml version="1.0" encoding="utf-8"?>
<!-- Generator: Adobe Illustrator 22.1.0, SVG Export Plug-In . SVG Version: 6.00 Build 0)  -->
<svg version="1.1" id="Layer_1" xmlns="http://www.w3.org/2000/svg" xmlns:xlink="http://www.w3.org/1999/xlink" x="0px" y="0px"
	 viewBox="0 0 259.5 270.4" style="enable-background:new 0 0 259.5 270.4;" xml:space="preserve">
<style type="text/css">
	.st0{fill:#CAE8DD;}
	.st1{fill:#E8AFBF;}
	.st2{fill:#FAC9D8;}
	.st3{fill:#585B8A;}
	.st4{fill:#302E41;}
	.st5{fill:#F3F3F3;}
	.st6{fill:#0FB794;}
	.st7{opacity:0.1;fill:#010101;enable-background:new    ;}
	.st8{fill:#FCBD7D;}
</style>
<path class="st0" d="M230.9,259.5H28.6C12.9,259.5,0,246.6,0,230.9V28.6C0,12.9,12.9,0,28.6,0h202.3c15.7,0,28.6,12.9,28.6,28.6
	v202.3C259.5,246.6,246.6,259.5,230.9,259.5z"/>
<g>
	<path class="st1" d="M114.8,85.6c0,0-2,23-7,24s11,41,11,41h24l19-5l-9-22c0,0-12-16-3-29S114.8,85.6,114.8,85.6z"/>
	<circle class="st2" cx="138.8" cy="75.6" r="31"/>
	<path class="st3" d="M135.8,145.6l-12-13l-13.3-26c0,0-9.7-3-11.7,2s-38,21-38,21s9,84,5,92s-11,40-5,43s39.7-18.6,48.7-14.6
		c9,4,30.2,7.2,37.2,2.2c7-5,7.1-1.6,14.1,1.4c6,2.6,20.9-76.8,24.9-102.8c0.7-4.5-1.2-8.9-4.9-11.5c-9-6.3-25.1-17.1-28-15.7
		C148.8,125.6,135.8,145.6,135.8,145.6z"/>
	<path class="st3" d="M178.8,141.6L178.8,141.6c4.8,1.2,8.4,5.3,8.9,10.2l8.1,72.8c0,0-20,43-30,14S178.8,141.6,178.8,141.6z"/>
	<path class="st3" d="M176.8,231.6l22-6c0,0,4,28,8,28s-11,6.2-21,5.9c-9.2-0.3-24-0.9-25-5.9c-1-5,9-26,9-26L176.8,231.6z"/>
	<path class="st4" d="M115.4,88.9c2.1-4.6,1.7-10.1,3.5-14.9c3.3-9.2,13.5-14,22.7-10.6c1.5,0.5,2.9,1.3,4.2,2.2
		c2.2,1.6,4.5,3.8,7.2,3.5c2.9-0.3,5.6-3.6,8.3-2.4c3,1.3,2.2,6.7,5.2,8c1.6,0.7,3.5-0.4,4.4-1.8c0.8-1.5,1.2-3.2,1.3-5
		c0.4-4.3,0.8-8.8-1.1-12.6c-0.8-1.3-1.5-2.7-2-4.1c-0.3-1.3-0.5-2.7-0.4-4c0-5-0.4-10.2-2.9-14.6c-2.8-4.8-8-7.9-13.4-9.2
		s-11.1-1.1-16.6-0.7c-9.2,0.8-18.7,2.4-25.9,8.1c-1,0.7-1.8,1.6-2.5,2.6c-0.6,1.2-1.1,2.5-1.3,3.8c-1.6,6.4-3.9,12.5-7,18.3
		c-1.5,2.5-2.7,5.1-3.6,7.8c-0.8,2.8-0.7,5.9,0.9,8.3c1.3,1.9,3.4,3,5,4.5c1.6,1.6,2.4,4.6,4.2,5.7c1.6,1,3.5,0.3,5.1,1.4
		C112.8,84.7,113,87.8,115.4,88.9z"/>
	<path class="st5" d="M140.8,160.6l3-6c0,0,44,13,53,25c0,0,22-14,34-12l12,2l-37,33l-47-4L140.8,160.6z"/>
	<path class="st6" d="M138.8,154.6l-41,57l59,29c0,0,5.5,3,9.8,0l39.2-18l37-53l-37,19c0,0-4-8-12-4L138.8,154.6z"/>
	<path class="st2" d="M201.8,255.6l8-21c0,0,18-23,8-34s-21,32-21,32L201.8,255.6z"/>
	<path class="st2" d="M109.5,252.2L127,238c0,0,27.1-10.9,24-25.4s-34.2,17.1-34.2,17.1L109.5,252.2z"/>
	<path class="st7" d="M66.3,151.1h-1c0,0-15.5-18.5-18.5,6.5s-13,108,13,111s44.5-12.5,44.5-12.5s19-29,12-29c-3.4,0-12.6-1.5-21-1
		c-9,0.6-17,3.1-16.5,0.5C79.8,221.6,94.3,158.1,66.3,151.1z"/>
	<path class="st3" d="M64.8,131.6l-4-2c0,0-16,3-19,28s-13,108,13,111s61-4,61-4s7-38,0-38s-43,5-42,0S92.8,138.6,64.8,131.6z"/>
	<polygon class="st3" points="187.3,244.1 198.3,227.2 205.3,255.1 187.3,259.5 	"/>
</g>
<circle class="st8" cx="232.6" cy="140.4" r="10.8"/>
<rect x="16.8" y="88.9" class="st8" width="25.6" height="25.6"/>
<polygon class="st8" points="208.8,40.1 215.3,51.4 221.7,62.6 208.8,62.6 195.8,62.6 202.3,51.4 "/>
<rect x="115.9" y="246.7" class="st3" width="74.1" height="12.8"/>
</svg>
