<?xml version="1.0" encoding="utf-8"?>
<!-- Generator: Adobe Illustrator 22.1.0, SVG Export Plug-In . SVG Version: 6.00 Build 0)  -->
<svg version="1.1" id="e4bbe722-77af-4dff-9d23-13f94132c30a"
	 xmlns="http://www.w3.org/2000/svg" xmlns:xlink="http://www.w3.org/1999/xlink" x="0px" y="0px" viewBox="0 0 176.6 251.8"
	 style="enable-background:new 0 0 176.6 251.8;" xml:space="preserve">
<style type="text/css">
	.st0{fill:#D46BE5;}
	.st1{opacity:0.2;enable-background:new    ;}
	.st2{fill:#FFCDD7;}
	.st3{fill:url(#SVGID_1_);}
	.st4{fill:#4B4487;}
	.st5{fill:url(#SVGID_2_);}
	.st6{fill:url(#SVGID_3_);}
</style>
<title>hacker_mindset</title>
<g>
	<polygon class="st0" points="134.7,69 138.7,62 118.7,58 116.7,68 119.7,76 	"/>
	<polygon class="st1" points="134.7,69 138.7,62 118.7,58 116.7,68 119.7,76 	"/>
	<circle class="st2" cx="123.2" cy="38.5" r="26"/>
	<polygon class="st2" points="101.2,38.5 80.2,73.5 111.2,91.5 127.2,54.5 	"/>
	<linearGradient id="SVGID_1_" gradientUnits="userSpaceOnUse" x1="60.1578" y1="249.3399" x2="107.1462" y2="73.977">
		<stop  offset="5.405406e-03" style="stop-color:#9955EC"/>
		<stop  offset="1" style="stop-color:#D76CE4"/>
	</linearGradient>
	<path class="st3" d="M99.2,79.5l-27-11c0,0-41,7-45,20s-4,118-4,118s-10,26,4,27c0,0-4,6,0,7s45,0,61,5s48,9,48,4v-9c0,0,7-7,3-19
		s-9-38-9-38s30-66,27-74s-39.6-32.7-39.6-32.7L99.2,79.5z"/>
	<polygon class="st2" points="37.2,206.5 38.2,214.5 52.2,197.5 47.2,197.5 	"/>
	<path class="st0" d="M99.2,79.5l-29-7c0,0-6-5-6-11s9-15,15-21c1.1-1.1,2.5-1.7,4-1.7c5.9,0,13.1,7.7,13.1,7.7l-8,13.3L88,60.5
		L99.2,79.5z"/>
	<path class="st0" d="M121.5,67.6l17.1-5.6c0,0,5.5,21.5-0.5,22.5s-39-2-39-2L121.5,67.6z"/>
	<path class="st4" d="M97.8,45.6c1.6-0.1,2.7-1.9,3.1-3.5s0.6-3.5,1.5-4.9c2.5-3.9,9-2.3,11.6-6.2c1.6-2.3,1.3-6.2,3.6-7.7
		c1.5-0.9,3.3-0.5,5,0.1c6.3,2.3,12.1,5.8,17.1,10.2l2.1-1.7l2.6,5.2c1-1.2,3-0.3,3.8,1.1s1.3,3.1,2.5,4.1c1.9,1.6,4.9,0.2,6.1-2
		s1-5.1,0.6-7.6c-1-6.4-3.2-12.6-6.3-18.3l2.4-1.4l-3.1-0.4l1.2-2.7l-3.2,0l1.3-2.3c-4.3,1.5-8.8-1.2-13-3.3
		c-6.9-3.4-14.7-5-22.3-3.8c-7.8,1.3-14.7,5.8-19.1,12.4C91.9,18,90,25.5,91.7,31.7C93.2,37.3,99.7,38.2,97.8,45.6z"/>
	<linearGradient id="SVGID_2_" gradientUnits="userSpaceOnUse" x1="17.5654" y1="205.5152" x2="48.8644" y2="88.7056">
		<stop  offset="5.405406e-03" style="stop-color:#9955EC"/>
		<stop  offset="1" style="stop-color:#D76CE4"/>
	</linearGradient>
	<path class="st5" d="M33.2,84.5c0,0-6-1-10,7s-34,72-19,92s29,26,29,26l3,1l15-16l-5-7c0,0,0-7-4-8s-4,2-5-2s4-1-1-5s-1-6-1-6
		L33.2,84.5z"/>
	<polygon class="st2" points="139.2,218 138.2,226 124.2,209 129.2,209 	"/>
	<linearGradient id="SVGID_3_" gradientUnits="userSpaceOnUse" x1="110.6106" y1="180.7848" x2="176.3656" y2="142.8212">
		<stop  offset="5.405406e-03" style="stop-color:#9955EC"/>
		<stop  offset="1" style="stop-color:#D76CE4"/>
	</linearGradient>
	<path class="st6" d="M137.7,106c0,0,14-7,18,1s31.5,68,16.5,88s-29,26-29,26l-3,1l-15-16l5-7c0,0,0-7,4-8s4,2,5-2s-4-1,1-5s1-6,1-6
		L137.7,106z"/>
	<polygon class="st1" points="42.7,124 31.7,168 44.7,184 38.7,164 	"/>
	<path class="st1" d="M96.3,46.6l-8,13.3c-5-1.7-5.4-13.4-5.2-21.1C89.1,38.8,96.3,46.6,96.3,46.6z"/>
</g>
</svg>
