<?xml version="1.0" encoding="utf-8"?>
<!-- Generator: Adobe Illustrator 22.1.0, SVG Export Plug-In . SVG Version: 6.00 Build 0)  -->
<svg version="1.1" id="Layer_1" xmlns="http://www.w3.org/2000/svg" xmlns:xlink="http://www.w3.org/1999/xlink" x="0px" y="0px"
	 viewBox="0 0 18 18" style="enable-background:new 0 0 18 18;" xml:space="preserve">
<style type="text/css">
	.st0{fill:#DA3737;}
	.st1{fill:#8639D8;}
	.st2{fill:#FFFFFF;}
</style>
<title>images_color</title>
<desc>Created with Sketch.</desc>
<g id="Page-1">
	<g id="images_color">
		<g id="drive-document">
			<path id="Shape" class="st0" d="M16,0H2C0.9,0,0,0.9,0,2v14c0,1.1,0.9,2,2,2h14c1.1,0,2-0.9,2-2V2C18,0.9,17.1,0,16,0L16,0z"/>
		</g>
		<g id="drive-document_1_">
			<path id="Shape_1_" class="st1" d="M16,0H2C0.9,0,0,0.9,0,2v14c0,1.1,0.9,2,2,2h14c1.1,0,2-0.9,2-2V2C18,0.9,17.1,0,16,0L16,0z"
				/>
		</g>
		<path id="Path" class="st2" d="M12.5,9.5l-2.5,3L6.5,8L2,14h14L12.5,9.5L12.5,9.5z"/>
	</g>
</g>
</svg>
