<?xml version="1.0" encoding="UTF-8" standalone="no"?>
<svg width="18px" height="18px" viewBox="0 0 18 18" version="1.1" xmlns="http://www.w3.org/2000/svg" xmlns:xlink="http://www.w3.org/1999/xlink">
    <!-- Generator: Sketch 3.6.1 (26313) - http://www.bohemiancoding.com/sketch -->
    <title>movie_color</title>
    <desc>Created with Sketch.</desc>
    <defs></defs>
    <g id="Page-1" stroke="none" stroke-width="1" fill="none" fill-rule="evenodd">
        <g id="movie_color">
            <path d="M16,0 L2,0 C0.9,0 0,0.9 0,2 L0,16 C0,17.1 0.9,18 2,18 L16,18 C17.1,18 18,17.1 18,16 L18,2 C18,0.9 17.1,0 16,0 L16,0 Z" id="Shape" fill="#F3B137"></path>
            <path d="M13.8,6.5 L12,6.5 L10.8,4 L9.6,4 L10.8,6.5 L9,6.5 L7.8,4 L6.6,4 L7.8,6.5 L6,6.5 L4.8,4 L4.2,4 C3.5372583,4 3,4.55964406 3,5.25 L3,12.75 C3,13.4403559 3.5372583,14 4.2,14 L13.8,14 C14.4627417,14 15,13.4403559 15,12.75 L15,4 L12.6,4 L13.8,6.5 Z" id="Shape" fill="#FFFFFF"></path>
        </g>
    </g>
</svg>